<?xml version="1.0" encoding="iso-8859-1"?>
<!-- Generator: Adobe Illustrator 19.0.0, SVG Export Plug-In . SVG Version: 6.00 Build 0)  -->
<svg version="1.1" id="Capa_1" xmlns="http://www.w3.org/2000/svg" xmlns:xlink="http://www.w3.org/1999/xlink" x="0px" y="0px"
	 viewBox="0 0 496.485 496.485" style="enable-background:new 0 0 496.485 496.485;" xml:space="preserve">
<circle style="fill:#E1E6E9;" cx="248.242" cy="248.242" r="248.242"/>
<circle style="fill:#FFFFFF;" cx="242.812" cy="248.242" r="29.479"/>
<path style="fill:#193651;" d="M376.242,384c-47.321,0-114.812-22.497-181.527-61.285C91.539,262.982,17.842,180.752,43.442,136.533
	c6.206-10.861,20.945-23.273,55.855-23.273c47.321,0,114.812,22.497,181.527,61.285c108.606,62.836,175.321,145.067,151.273,186.182
	C425.891,370.812,411.152,384,376.242,384z M57.406,144.291c-17.842,30.255,41.115,105.503,145.067,165.236
	c105.503,61.285,198.594,72.921,215.661,43.442c17.067-29.479-37.236-103.176-145.067-165.236
	C167.564,126.448,74.473,114.036,57.406,144.291z"/>
<circle style="fill:#2EA2DB;" cx="413.479" cy="301.77" r="25.6"/>
<path style="fill:#193651;" d="M242.812,472.436c-48.097,0-86.109-98.521-86.109-224.194s38.012-224.194,86.109-224.194
	s86.109,98.521,86.109,224.194S290.909,472.436,242.812,472.436z M242.812,39.564c-34.133,0-70.594,83.782-70.594,208.679
	s36.461,208.679,70.594,208.679s70.594-83.782,70.594-208.679S276.945,39.564,242.812,39.564z"/>
<ellipse style="fill:#2EA2DB;" cx="201.581" cy="68.89" rx="25.599" ry="25.599"/>
<path style="fill:#193651;" d="M436.752,124.897c-25.6-44.994-134.206-22.497-237.382,37.236
	C90.764,224.97,24.824,307.2,48.873,349.091c25.6,44.218,134.206,21.721,237.382-37.236
	C394.861,248.242,460.8,166.012,436.752,124.897z M277.721,297.891c-106.279,61.285-198.594,72.921-215.661,43.442
	s37.236-103.176,145.067-165.236c106.279-61.285,198.594-72.921,215.661-43.442C439.855,161.358,384,236.606,277.721,297.891z"/>
<ellipse style="fill:#2EA2DB;" cx="108.67" cy="361.821" rx="25.599" ry="25.599"/>
<g>
</g>
<g>
</g>
<g>
</g>
<g>
</g>
<g>
</g>
<g>
</g>
<g>
</g>
<g>
</g>
<g>
</g>
<g>
</g>
<g>
</g>
<g>
</g>
<g>
</g>
<g>
</g>
<g>
</g>
</svg>
